<svg width="33" height="33" viewBox="0 0 33 33" fill="none" xmlns="http://www.w3.org/2000/svg">
<g clip-path="url(#clip0_8_114)">
<path d="M11 4.125H6.875C6.14565 4.125 5.44618 4.41473 4.93046 4.93046C4.41473 5.44618 4.125 6.14565 4.125 6.875V11M28.875 11V6.875C28.875 6.14565 28.5853 5.44618 28.0695 4.93046C27.5538 4.41473 26.8543 4.125 26.125 4.125H22M22 28.875H26.125C26.8543 28.875 27.5538 28.5853 28.0695 28.0695C28.5853 27.5538 28.875 26.8543 28.875 26.125V22M4.125 22V26.125C4.125 26.8543 4.41473 27.5538 4.93046 28.0695C5.44618 28.5853 6.14565 28.875 6.875 28.875H11" stroke="white" stroke-width="1.83585" stroke-linecap="round" stroke-linejoin="round"/>
<path d="M6.875 16.5H26.125" stroke="white" stroke-width="1.83585" stroke-linecap="round" stroke-linejoin="round"/>
</g>
<defs>
<clipPath id="clip0_8_114">
<rect width="33" height="33" fill="white"/>
</clipPath>
</defs>
</svg>
